<?xml version="1.0" encoding="utf-8"?>
<!-- Generator: Adobe Illustrator 16.0.0, SVG Export Plug-In . SVG Version: 6.00 Build 0)  -->
<!DOCTYPE svg PUBLIC "-//W3C//DTD SVG 1.1//EN" "http://www.w3.org/Graphics/SVG/1.1/DTD/svg11.dtd">
<svg version="1.1" id="Capa_1" xmlns="http://www.w3.org/2000/svg" xmlns:xlink="http://www.w3.org/1999/xlink" x="0px" y="0px"
	 width="311px" height="89px" viewBox="0 0 311 89" enable-background="new 0 0 311 89" xml:space="preserve">
<g>
	<path fill="#88888B" d="M58.574,53.025l3.579-10.767c0.096-0.267,0.234-0.481,0.415-0.644c0.182-0.162,0.415-0.243,0.702-0.243
		c0.324,0,0.611,0.124,0.859,0.371c0.248,0.249,0.373,0.535,0.373,0.859c0,0.115-0.105,0.497-0.315,1.145
		c-0.21,0.649-0.472,1.437-0.787,2.363s-0.664,1.923-1.045,2.992c-0.382,1.069-0.75,2.085-1.103,3.048
		c-0.354,0.965-0.664,1.814-0.931,2.549c-0.268,0.734-0.439,1.227-0.515,1.474c-0.096,0.269-0.249,0.492-0.458,0.674
		c-0.211,0.182-0.468,0.271-0.773,0.271c-0.344,0-0.616-0.076-0.816-0.229c-0.2-0.153-0.358-0.392-0.472-0.717l-4.982-14.057
		l2.291-0.744L58.574,53.025z"/>
	<path fill="#88888B" d="M67.592,52.009c0.229,0.582,0.544,1.087,0.945,1.517c0.401,0.429,0.878,0.772,1.432,1.03
		s1.155,0.387,1.804,0.387c0.534,0,1.068-0.062,1.603-0.186c0.534-0.124,1.049-0.263,1.546-0.416l0.544,1.919
		c-0.649,0.268-1.265,0.481-1.847,0.645c-0.583,0.161-1.226,0.243-1.932,0.243c-1.146,0-2.158-0.215-3.035-0.645
		c-0.878-0.429-1.623-1.006-2.234-1.732c-0.611-0.725-1.073-1.569-1.388-2.534c-0.315-0.963-0.472-1.979-0.472-3.049
		c0-0.991,0.162-1.961,0.486-2.906c0.325-0.944,0.788-1.779,1.389-2.505s1.326-1.307,2.175-1.747
		c0.85-0.438,1.809-0.658,2.877-0.658c1.012,0,1.923,0.214,2.734,0.644c0.812,0.429,1.499,0.992,2.062,1.689
		c0.562,0.697,0.997,1.493,1.302,2.391c0.305,0.896,0.458,1.813,0.458,2.749c0,0.554-0.124,0.916-0.372,1.088
		c-0.248,0.172-0.629,0.258-1.145,0.258h-9.276C67.249,50.82,67.363,51.427,67.592,52.009z M75.495,48.301
		c-0.019-0.573-0.125-1.15-0.315-1.732c-0.191-0.583-0.458-1.106-0.802-1.575c-0.343-0.468-0.763-0.849-1.26-1.145
		c-0.497-0.295-1.059-0.444-1.689-0.444c-0.726,0-1.336,0.144-1.833,0.431c-0.497,0.286-0.907,0.657-1.231,1.117
		c-0.325,0.458-0.583,0.982-0.773,1.573c-0.191,0.593-0.325,1.185-0.401,1.776H75.495z"/>
	<path fill="#88888B" d="M79.589,42.545c0-0.344,0.125-0.634,0.373-0.873c0.248-0.239,0.543-0.358,0.887-0.358
		c0.305,0,0.539,0.067,0.702,0.201c0.162,0.133,0.277,0.3,0.344,0.501c0.066,0.2,0.1,0.425,0.1,0.672c0,0.249,0,0.478,0,0.688
		c0.438-0.648,1.025-1.146,1.761-1.489c0.734-0.344,1.493-0.515,2.276-0.515c0.859,0,1.632,0.143,2.319,0.43
		c0.687,0.285,1.274,0.687,1.761,1.202s0.859,1.126,1.117,1.831c0.258,0.707,0.386,1.479,0.386,2.319v8.791
		c0,0.344-0.12,0.635-0.358,0.873c-0.239,0.238-0.529,0.357-0.873,0.357c-0.325,0-0.601-0.119-0.831-0.357
		c-0.229-0.238-0.343-0.52-0.343-0.845v-8.79c0-0.496-0.096-0.969-0.286-1.417c-0.191-0.448-0.454-0.84-0.788-1.175
		c-0.334-0.333-0.721-0.601-1.159-0.802c-0.44-0.2-0.907-0.299-1.403-0.299c-0.497,0-0.964,0.095-1.403,0.286
		c-0.44,0.191-0.822,0.454-1.146,0.788c-0.325,0.334-0.577,0.72-0.759,1.16c-0.181,0.438-0.271,0.905-0.271,1.402v9.763h-2.405
		V42.545z"/>
	<path fill="#88888B" d="M104.125,34.958h2.434v20.958c0,0.324-0.12,0.606-0.358,0.845c-0.239,0.238-0.52,0.357-0.845,0.357
		c-0.362,0-0.629-0.081-0.801-0.244c-0.172-0.161-0.291-0.361-0.358-0.601c-0.067-0.238-0.1-0.5-0.1-0.787c0-0.286,0-0.554,0-0.802
		c-0.497,0.783-1.136,1.38-1.918,1.79s-1.632,0.616-2.548,0.616c-1.031,0-1.947-0.234-2.749-0.702
		c-0.802-0.468-1.475-1.074-2.019-1.817c-0.544-0.745-0.959-1.585-1.246-2.521c-0.286-0.935-0.43-1.86-0.43-2.776
		c0-0.993,0.147-1.966,0.444-2.921c0.296-0.955,0.725-1.804,1.288-2.549c0.563-0.744,1.265-1.34,2.104-1.789
		c0.84-0.448,1.804-0.673,2.892-0.673c0.877,0,1.689,0.196,2.434,0.586c0.745,0.392,1.335,0.97,1.775,1.733V34.958z M101.806,54.37
		c0.535-0.306,0.973-0.702,1.317-1.188c0.343-0.486,0.597-1.046,0.759-1.675c0.162-0.63,0.244-1.278,0.244-1.947
		c0-0.667-0.058-1.354-0.172-2.062c-0.115-0.705-0.32-1.346-0.616-1.918c-0.296-0.573-0.711-1.045-1.246-1.417
		s-1.221-0.558-2.062-0.558c-0.744,0-1.389,0.168-1.933,0.5c-0.543,0.334-0.992,0.769-1.345,1.304
		c-0.354,0.534-0.611,1.13-0.773,1.788c-0.163,0.658-0.244,1.313-0.244,1.962c0,0.63,0.072,1.284,0.215,1.96
		c0.143,0.68,0.382,1.289,0.716,1.834c0.333,0.543,0.763,0.992,1.288,1.345c0.525,0.354,1.169,0.53,1.933,0.53
		C100.632,54.828,101.271,54.676,101.806,54.37z"/>
	<path fill="#88888B" d="M108.592,46.311c0.305-0.945,0.744-1.785,1.317-2.521c0.573-0.733,1.279-1.325,2.119-1.774
		c0.84-0.448,1.794-0.673,2.863-0.673c1.069,0,2.022,0.225,2.863,0.673c0.84,0.449,1.546,1.041,2.119,1.774
		c0.572,0.735,1.011,1.575,1.317,2.521c0.305,0.945,0.458,1.914,0.458,2.905c0,0.975-0.148,1.938-0.444,2.893
		c-0.296,0.954-0.73,1.809-1.303,2.562s-1.279,1.359-2.119,1.817s-1.794,0.688-2.863,0.688c-1.088,0-2.052-0.229-2.892-0.688
		s-1.551-1.063-2.133-1.817c-0.583-0.754-1.021-1.608-1.317-2.562c-0.296-0.955-0.444-1.929-0.444-2.921
		C108.133,48.215,108.286,47.256,108.592,46.311z M110.939,51.178c0.152,0.678,0.391,1.302,0.716,1.875
		c0.324,0.573,0.749,1.041,1.274,1.402c0.524,0.364,1.159,0.545,1.903,0.545c0.783,0,1.446-0.176,1.99-0.53
		c0.544-0.353,0.982-0.81,1.317-1.374c0.333-0.563,0.577-1.188,0.73-1.875c0.152-0.687,0.229-1.364,0.229-2.033
		c0-0.647-0.077-1.312-0.229-1.99c-0.153-0.677-0.4-1.287-0.744-1.832c-0.344-0.544-0.783-0.992-1.317-1.345
		s-1.184-0.529-1.947-0.529c-0.744,0-1.379,0.181-1.904,0.543c-0.525,0.363-0.955,0.826-1.288,1.389
		c-0.335,0.562-0.578,1.179-0.73,1.847c-0.153,0.668-0.229,1.317-0.229,1.946C110.71,49.847,110.786,50.5,110.939,51.178z"/>
	<path fill="#9DBC46" d="M123.223,42.574c0-0.325,0.124-0.611,0.372-0.859c0.248-0.248,0.534-0.372,0.859-0.372
		c0.287,0,0.505,0.056,0.659,0.172c0.152,0.115,0.268,0.262,0.344,0.443s0.119,0.382,0.129,0.601
		c0.009,0.221,0.014,0.436,0.014,0.645c0.419-0.611,0.978-1.078,1.675-1.402c0.696-0.326,1.407-0.487,2.133-0.487
		c0.916,0,1.77,0.229,2.562,0.687c0.792,0.458,1.379,1.116,1.761,1.976c0.458-0.859,1.103-1.507,1.933-1.947
		c0.831-0.438,1.732-0.658,2.706-0.658c1.642,0,2.954,0.472,3.937,1.417c0.983,0.945,1.474,2.249,1.474,3.908v9.191
		c0,0.324-0.114,0.61-0.343,0.859c-0.229,0.247-0.515,0.371-0.859,0.371c-0.325,0-0.606-0.124-0.844-0.371
		c-0.239-0.249-0.358-0.535-0.358-0.859v-9.104c0-0.459-0.086-0.893-0.258-1.303c-0.171-0.41-0.405-0.764-0.702-1.06
		c-0.295-0.295-0.644-0.534-1.044-0.715c-0.401-0.181-0.831-0.272-1.289-0.272c-0.458,0-0.892,0.091-1.303,0.272
		s-0.764,0.42-1.059,0.715c-0.296,0.296-0.535,0.65-0.716,1.06c-0.182,0.41-0.272,0.844-0.272,1.303V56.86h-2.377V46.783
		c0-0.459-0.09-0.893-0.271-1.303c-0.182-0.41-0.425-0.768-0.73-1.074c-0.306-0.305-0.664-0.543-1.074-0.715
		c-0.411-0.172-0.845-0.259-1.303-0.259c-0.458,0-0.888,0.087-1.288,0.259c-0.401,0.172-0.755,0.41-1.06,0.715
		c-0.306,0.307-0.544,0.659-0.716,1.059c-0.172,0.401-0.258,0.831-0.258,1.289V56.86h-2.434V42.574z"/>
	<path fill="#9DBC46" d="M145.383,42.545c0-0.363,0.124-0.654,0.372-0.873c0.249-0.219,0.544-0.329,0.888-0.329
		c0.324,0,0.596,0.124,0.816,0.372c0.219,0.249,0.329,0.525,0.329,0.831V56.89h-2.405V42.545z M145.813,37.234
		c0.19-0.2,0.438-0.301,0.744-0.301c0.267,0,0.505,0.095,0.716,0.286c0.208,0.192,0.314,0.429,0.314,0.717
		c0,0.286-0.1,0.529-0.3,0.729c-0.2,0.2-0.444,0.301-0.73,0.301c-0.268,0-0.506-0.101-0.716-0.301
		c-0.209-0.2-0.314-0.434-0.314-0.702C145.527,37.678,145.621,37.435,145.813,37.234z"/>
	<path fill="#69A642" d="M152.054,38.136c0-0.324,0.109-0.625,0.329-0.901c0.219-0.277,0.51-0.415,0.874-0.415
		c0.342,0,0.632,0.138,0.873,0.415c0.238,0.276,0.356,0.578,0.356,0.901l-0.028,3.436c0.191,0,0.43-0.003,0.715-0.014
		c0.287-0.01,0.559,0.01,0.817,0.057c0.258,0.048,0.477,0.149,0.658,0.3c0.183,0.153,0.272,0.401,0.272,0.745
		c0,0.324-0.09,0.562-0.272,0.716c-0.181,0.152-0.396,0.253-0.643,0.3c-0.249,0.047-0.516,0.067-0.802,0.058
		c-0.288-0.01-0.526-0.015-0.717-0.015V56.86h-2.404V43.719c-0.211,0-0.449,0.005-0.715,0.015c-0.268,0.01-0.52-0.01-0.758-0.058
		c-0.24-0.047-0.445-0.148-0.617-0.3c-0.171-0.153-0.257-0.392-0.257-0.716c0-0.325,0.082-0.563,0.243-0.716
		c0.162-0.152,0.363-0.257,0.602-0.314c0.238-0.059,0.492-0.083,0.758-0.072c0.268,0.01,0.506,0.014,0.717,0.014V38.136z"/>
	<path fill="#69A642" d="M159.21,52.009c0.23,0.582,0.545,1.087,0.946,1.517c0.401,0.429,0.878,0.772,1.431,1.03
		c0.554,0.258,1.155,0.387,1.805,0.387c0.535,0,1.069-0.062,1.603-0.186c0.534-0.124,1.05-0.263,1.547-0.416l0.544,1.919
		c-0.649,0.268-1.266,0.481-1.847,0.645c-0.583,0.161-1.227,0.243-1.933,0.243c-1.146,0-2.157-0.215-3.035-0.645
		c-0.878-0.429-1.622-1.006-2.234-1.732c-0.609-0.725-1.072-1.569-1.388-2.534c-0.314-0.963-0.473-1.979-0.473-3.049
		c0-0.991,0.163-1.961,0.488-2.906c0.323-0.944,0.788-1.779,1.389-2.505c0.602-0.726,1.326-1.307,2.175-1.747
		c0.85-0.438,1.81-0.658,2.879-0.658c1.012,0,1.922,0.214,2.733,0.644c0.812,0.429,1.498,0.992,2.062,1.689
		c0.562,0.697,0.996,1.493,1.302,2.391c0.306,0.896,0.458,1.813,0.458,2.749c0,0.554-0.123,0.916-0.372,1.088
		c-0.248,0.172-0.63,0.258-1.145,0.258h-9.276C158.868,50.82,158.981,51.427,159.21,52.009z M167.113,48.301
		c-0.02-0.573-0.125-1.15-0.315-1.732c-0.19-0.583-0.458-1.106-0.802-1.575c-0.344-0.468-0.763-0.849-1.26-1.145
		c-0.496-0.295-1.059-0.444-1.688-0.444c-0.726,0-1.337,0.144-1.833,0.431c-0.496,0.286-0.907,0.657-1.231,1.117
		c-0.324,0.458-0.582,0.982-0.773,1.573c-0.19,0.593-0.323,1.185-0.399,1.776H167.113z"/>
	<path fill="#69A642" d="M171.207,35.788c0-0.343,0.114-0.639,0.344-0.887c0.229-0.248,0.516-0.372,0.859-0.372
		s0.63,0.125,0.858,0.372c0.229,0.248,0.344,0.544,0.344,0.887V56.89l-2.405,0.029V35.788z"/>
	<path fill="#69A642" d="M178.222,52.009c0.229,0.582,0.544,1.087,0.944,1.517c0.401,0.429,0.879,0.772,1.433,1.03
		s1.154,0.387,1.803,0.387c0.535,0,1.069-0.062,1.604-0.186c0.534-0.124,1.049-0.263,1.547-0.416l0.542,1.919
		c-0.647,0.268-1.265,0.481-1.846,0.645c-0.582,0.161-1.228,0.243-1.933,0.243c-1.146,0-2.158-0.215-3.034-0.645
		c-0.879-0.429-1.624-1.006-2.233-1.732c-0.613-0.725-1.075-1.569-1.389-2.534c-0.315-0.963-0.474-1.979-0.474-3.049
		c0-0.991,0.163-1.961,0.487-2.906c0.324-0.944,0.787-1.779,1.389-2.505c0.601-0.726,1.326-1.307,2.176-1.747
		c0.85-0.438,1.809-0.658,2.878-0.658c1.011,0,1.922,0.214,2.734,0.644c0.81,0.429,1.497,0.992,2.061,1.689s0.998,1.493,1.303,2.391
		c0.306,0.896,0.458,1.813,0.458,2.749c0,0.554-0.125,0.916-0.371,1.088c-0.249,0.172-0.63,0.258-1.146,0.258h-9.275
		C177.879,50.82,177.992,51.427,178.222,52.009z M186.125,48.301c-0.02-0.573-0.125-1.15-0.316-1.732
		c-0.19-0.583-0.457-1.106-0.801-1.575c-0.344-0.468-0.764-0.849-1.261-1.145c-0.495-0.295-1.059-0.444-1.689-0.444
		c-0.726,0-1.335,0.144-1.832,0.431c-0.496,0.286-0.905,0.657-1.231,1.117c-0.324,0.458-0.582,0.982-0.772,1.573
		c-0.19,0.593-0.325,1.185-0.4,1.776H186.125z"/>
	<path fill="#69A642" d="M190.477,37.765c0-0.917,0.271-1.68,0.816-2.292c0.543-0.61,1.283-0.916,2.219-0.916h1.087
		c0.325,0,0.646,0.091,0.96,0.272c0.315,0.182,0.472,0.463,0.472,0.845c0,0.306-0.067,0.535-0.2,0.688
		c-0.134,0.153-0.296,0.257-0.487,0.315c-0.19,0.057-0.41,0.085-0.657,0.085c-0.229,0-0.44,0-0.63,0
		c-0.269,0-0.521,0.062-0.76,0.186c-0.238,0.125-0.357,0.349-0.357,0.673v3.95c0.21,0,0.477-0.009,0.802-0.028
		c0.324-0.019,0.645-0.009,0.959,0.028c0.315,0.039,0.587,0.14,0.815,0.301c0.23,0.162,0.344,0.425,0.344,0.788
		c0,0.362-0.113,0.621-0.344,0.772c-0.229,0.153-0.5,0.253-0.815,0.301c-0.314,0.048-0.64,0.056-0.974,0.028
		c-0.333-0.028-0.596-0.043-0.787-0.043v19.24h-2.433v-19.24c-0.249,0-0.513,0.01-0.789,0.029c-0.276,0.02-0.534,0-0.772-0.056
		c-0.238-0.059-0.438-0.167-0.602-0.33c-0.162-0.163-0.243-0.416-0.243-0.759c0-0.324,0.086-0.558,0.258-0.701
		s0.381-0.238,0.63-0.287c0.248-0.047,0.505-0.067,0.773-0.057c0.267,0.01,0.505,0.014,0.716,0.014V37.765z"/>
	<path fill="#69A642" d="M195.658,46.311c0.305-0.945,0.744-1.785,1.317-2.521c0.572-0.733,1.278-1.325,2.119-1.774
		c0.839-0.448,1.793-0.673,2.862-0.673c1.068,0,2.023,0.225,2.862,0.673c0.84,0.449,1.546,1.041,2.12,1.774
		c0.572,0.735,1.011,1.575,1.316,2.521s0.458,1.914,0.458,2.905c0,0.975-0.148,1.938-0.443,2.893
		c-0.296,0.954-0.73,1.809-1.303,2.562s-1.279,1.359-2.119,1.817c-0.839,0.458-1.794,0.688-2.863,0.688
		c-1.087,0-2.052-0.229-2.891-0.688c-0.841-0.458-1.552-1.063-2.134-1.817s-1.021-1.608-1.317-2.562
		c-0.295-0.955-0.443-1.929-0.443-2.921C195.2,48.215,195.353,47.256,195.658,46.311z M198.006,51.178
		c0.153,0.678,0.392,1.302,0.716,1.875s0.749,1.041,1.274,1.402c0.525,0.364,1.16,0.545,1.903,0.545c0.783,0,1.446-0.176,1.99-0.53
		c0.544-0.353,0.982-0.81,1.317-1.374c0.333-0.563,0.576-1.188,0.729-1.875c0.152-0.687,0.229-1.364,0.229-2.033
		c0-0.647-0.077-1.312-0.229-1.99c-0.153-0.677-0.4-1.287-0.744-1.832c-0.344-0.544-0.783-0.992-1.317-1.345
		c-0.535-0.353-1.184-0.529-1.946-0.529c-0.744,0-1.379,0.181-1.904,0.543c-0.525,0.363-0.954,0.826-1.289,1.389
		c-0.333,0.562-0.576,1.179-0.729,1.847c-0.152,0.668-0.229,1.317-0.229,1.946C197.777,49.847,197.854,50.5,198.006,51.178z"/>
	<path fill="#69A642" d="M210.289,42.545c0-0.344,0.124-0.634,0.372-0.873c0.248-0.239,0.544-0.358,0.888-0.358
		c0.305,0,0.539,0.067,0.701,0.201c0.161,0.133,0.276,0.3,0.344,0.501c0.066,0.2,0.101,0.425,0.101,0.672c0,0.249,0,0.478,0,0.688
		c0.438-0.648,1.024-1.146,1.761-1.489c0.734-0.344,1.493-0.515,2.275-0.515c0.859,0,1.632,0.143,2.319,0.43
		c0.688,0.285,1.274,0.687,1.761,1.202s0.859,1.126,1.117,1.831c0.258,0.707,0.386,1.479,0.386,2.319v8.791
		c0,0.344-0.119,0.635-0.357,0.873c-0.239,0.238-0.529,0.357-0.873,0.357c-0.324,0-0.602-0.119-0.831-0.357
		c-0.229-0.238-0.344-0.52-0.344-0.845v-8.79c0-0.496-0.095-0.969-0.286-1.417c-0.19-0.448-0.453-0.84-0.786-1.175
		c-0.335-0.333-0.722-0.601-1.16-0.802c-0.438-0.2-0.907-0.299-1.402-0.299c-0.497,0-0.965,0.095-1.404,0.286
		c-0.438,0.191-0.82,0.454-1.145,0.788c-0.325,0.334-0.577,0.72-0.759,1.16c-0.182,0.438-0.271,0.905-0.271,1.402v9.763h-2.405
		V42.545z"/>
	<path fill="#69A642" d="M224.346,46.311c0.306-0.945,0.744-1.785,1.317-2.521c0.573-0.733,1.279-1.325,2.119-1.774
		c0.839-0.448,1.793-0.673,2.863-0.673c1.068,0,2.022,0.225,2.862,0.673c0.84,0.449,1.546,1.041,2.119,1.774
		c0.572,0.735,1.011,1.575,1.316,2.521s0.458,1.914,0.458,2.905c0,0.975-0.148,1.938-0.442,2.893
		c-0.297,0.954-0.731,1.809-1.304,2.562s-1.279,1.359-2.118,1.817c-0.84,0.458-1.795,0.688-2.863,0.688
		c-1.088,0-2.053-0.229-2.892-0.688c-0.84-0.458-1.552-1.063-2.134-1.817s-1.021-1.608-1.316-2.562
		c-0.296-0.955-0.444-1.929-0.444-2.921C223.888,48.215,224.041,47.256,224.346,46.311z M226.693,51.178
		c0.153,0.678,0.392,1.302,0.716,1.875c0.325,0.573,0.749,1.041,1.274,1.402c0.525,0.364,1.16,0.545,1.903,0.545
		c0.783,0,1.446-0.176,1.991-0.53c0.543-0.353,0.981-0.81,1.316-1.374c0.334-0.563,0.576-1.188,0.73-1.875
		c0.153-0.687,0.229-1.364,0.229-2.033c0-0.647-0.075-1.312-0.229-1.99c-0.154-0.677-0.4-1.287-0.744-1.832
		c-0.344-0.544-0.784-0.992-1.318-1.345s-1.184-0.529-1.946-0.529c-0.744,0-1.379,0.181-1.903,0.543
		c-0.526,0.363-0.955,0.826-1.288,1.389c-0.335,0.562-0.578,1.179-0.731,1.847c-0.152,0.668-0.229,1.317-0.229,1.946
		C226.465,49.847,226.541,50.5,226.693,51.178z"/>
	<path fill="#88888B" d="M239.693,54.685c0.286-0.305,0.639-0.457,1.06-0.457c0.419,0,0.781,0.143,1.087,0.429
		c0.307,0.286,0.459,0.649,0.459,1.088c0,0.401-0.148,0.749-0.444,1.045s-0.653,0.444-1.074,0.444c-0.4,0-0.754-0.148-1.059-0.444
		s-0.458-0.644-0.458-1.045C239.264,55.344,239.406,54.991,239.693,54.685z"/>
	<path fill="#88888B" d="M244.589,46.268c0.305-0.953,0.758-1.798,1.359-2.534c0.601-0.735,1.336-1.318,2.205-1.747
		c0.868-0.43,1.864-0.644,2.991-0.644c0.458,0,0.873,0.033,1.246,0.1c0.372,0.067,0.729,0.157,1.073,0.272
		c0.344,0.115,0.688,0.259,1.031,0.431c0.343,0.171,0.706,0.362,1.088,0.572l-1.175,2.004c-0.496-0.267-1.021-0.525-1.574-0.773
		c-0.554-0.248-1.116-0.373-1.689-0.373c-0.783,0-1.451,0.168-2.004,0.502c-0.554,0.333-1.008,0.763-1.359,1.288
		c-0.354,0.525-0.615,1.121-0.787,1.789c-0.172,0.669-0.259,1.336-0.259,2.005c0,0.611,0.087,1.255,0.259,1.933
		c0.172,0.679,0.433,1.293,0.787,1.847c0.352,0.554,0.791,1.013,1.316,1.374c0.525,0.363,1.149,0.544,1.875,0.544
		c0.286,0,0.574-0.047,0.859-0.143c0.286-0.096,0.562-0.195,0.83-0.301c0.268-0.104,0.516-0.205,0.745-0.301
		c0.229-0.095,0.429-0.143,0.601-0.143c0.305,0,0.567,0.109,0.787,0.328c0.22,0.221,0.33,0.473,0.33,0.76
		c0,0.42-0.158,0.758-0.473,1.017c-0.315,0.257-0.691,0.463-1.131,0.614c-0.439,0.153-0.893,0.258-1.36,0.315
		s-0.854,0.087-1.16,0.087c-1.105,0-2.09-0.217-2.948-0.646c-0.858-0.43-1.58-1.001-2.162-1.718
		c-0.582-0.716-1.021-1.546-1.316-2.491c-0.296-0.945-0.444-1.932-0.444-2.962C244.13,48.225,244.282,47.223,244.589,46.268z"/>
	<path fill="#88888B" d="M255.497,46.311c0.305-0.945,0.743-1.785,1.317-2.521c0.572-0.733,1.278-1.325,2.118-1.774
		c0.84-0.448,1.794-0.673,2.863-0.673c1.068,0,2.022,0.225,2.862,0.673c0.84,0.449,1.546,1.041,2.119,1.774
		c0.573,0.735,1.012,1.575,1.316,2.521c0.306,0.945,0.459,1.914,0.459,2.905c0,0.975-0.148,1.938-0.443,2.893
		c-0.296,0.954-0.73,1.809-1.303,2.562c-0.573,0.754-1.279,1.359-2.119,1.817s-1.795,0.688-2.863,0.688
		c-1.087,0-2.052-0.229-2.892-0.688s-1.551-1.063-2.133-1.817s-1.022-1.608-1.317-2.562c-0.296-0.955-0.444-1.929-0.444-2.921
		C255.038,48.215,255.191,47.256,255.497,46.311z M257.845,51.178c0.152,0.678,0.391,1.302,0.716,1.875
		c0.324,0.573,0.749,1.041,1.273,1.402c0.525,0.364,1.16,0.545,1.904,0.545c0.783,0,1.445-0.176,1.99-0.53
		c0.544-0.353,0.982-0.81,1.316-1.374c0.333-0.563,0.577-1.188,0.73-1.875c0.152-0.687,0.229-1.364,0.229-2.033
		c0-0.647-0.077-1.312-0.229-1.99c-0.153-0.677-0.4-1.287-0.744-1.832c-0.344-0.544-0.783-0.992-1.318-1.345
		c-0.534-0.353-1.183-0.529-1.945-0.529c-0.745,0-1.38,0.181-1.904,0.543c-0.525,0.363-0.955,0.826-1.289,1.389
		c-0.333,0.562-0.577,1.179-0.729,1.847c-0.153,0.668-0.229,1.317-0.229,1.946C257.615,49.847,257.691,50.5,257.845,51.178z"/>
	<path fill="#88888B" d="M270.127,42.574c0-0.325,0.125-0.611,0.372-0.859c0.248-0.248,0.534-0.372,0.858-0.372
		c0.287,0,0.507,0.056,0.659,0.172c0.153,0.115,0.268,0.262,0.344,0.443s0.119,0.382,0.13,0.601
		c0.009,0.221,0.014,0.436,0.014,0.645c0.419-0.611,0.978-1.078,1.675-1.402c0.697-0.326,1.407-0.487,2.133-0.487
		c0.917,0,1.771,0.229,2.563,0.687c0.791,0.458,1.378,1.116,1.76,1.976c0.459-0.859,1.103-1.507,1.933-1.947
		c0.83-0.438,1.732-0.658,2.706-0.658c1.642,0,2.953,0.472,3.937,1.417c0.982,0.945,1.474,2.249,1.474,3.908v9.191
		c0,0.324-0.114,0.61-0.344,0.859c-0.228,0.247-0.514,0.371-0.857,0.371c-0.325,0-0.606-0.124-0.845-0.371
		c-0.239-0.249-0.358-0.535-0.358-0.859v-9.104c0-0.459-0.086-0.893-0.258-1.303s-0.405-0.764-0.702-1.06
		c-0.296-0.295-0.643-0.534-1.045-0.715c-0.4-0.181-0.829-0.272-1.287-0.272s-0.894,0.091-1.303,0.272
		c-0.411,0.181-0.765,0.42-1.06,0.715c-0.297,0.296-0.535,0.65-0.716,1.06c-0.182,0.41-0.272,0.844-0.272,1.303V56.86h-2.376V46.783
		c0-0.459-0.091-0.893-0.272-1.303c-0.181-0.41-0.425-0.768-0.729-1.074c-0.306-0.305-0.664-0.543-1.074-0.715
		s-0.845-0.259-1.303-0.259s-0.887,0.087-1.288,0.259s-0.755,0.41-1.06,0.715c-0.306,0.307-0.544,0.659-0.716,1.059
		c-0.172,0.401-0.258,0.831-0.258,1.289V56.86h-2.434V42.574z"/>
</g>
<linearGradient id="SVGID_1_" gradientUnits="userSpaceOnUse" x1="1.1553" y1="61.5127" x2="33.3169" y2="61.5127" gradientTransform="matrix(1 0 0 1 2.4893 -9.8213)">
	<stop  offset="0" style="stop-color:#9DBC46"/>
	<stop  offset="1" style="stop-color:#69A642"/>
</linearGradient>
<path fill="url(#SVGID_1_)" d="M3.656,31.808c0,0-0.619-6.339,7.108-7.109h19.313c0,0,5.719,0.312,5.719,6.646
	c0,6.333,0,37.701,0,37.701s0.615,9.425-7.883,9.58c-7.103,0.13-15.296,0-15.296,0s-8.652-0.774-8.961-8.654V31.808z"/>
<path fill="#FFFFFF" d="M31.122,52.941c0,1.666-1.354,3.018-3.021,3.018H11.406c-1.669,0-3.021-1.352-3.021-3.018V32.139
	c0-1.667,1.353-3.02,3.021-3.02h16.695c1.667,0,3.021,1.354,3.021,3.02V52.941z"/>
<path fill="none" stroke="#FFFFFF" stroke-width="3.6365" stroke-linecap="round" stroke-linejoin="round" d="M8.296,63
	c0,0,3.08,7.388,11.309,7.388c8.225,0,11.437-7.433,11.437-7.433"/>
<path fill="#3A6636" d="M20.052,14.34"/>
<path fill="#9DBC46" d="M26.828,14.236c-4.803-3.514-9.547-1.875-9.547-1.875s-1.038,4.13,2.811,7.79
	c3.573,3.397,9.23,2.991,9.23,2.991S30.57,16.975,26.828,14.236z"/>
<path fill="#69A642" d="M32.56,11.921c5.206-4.76,11.005-3.44,11.005-3.44s1.756,4.731-2.306,9.541
	c-3.771,4.463-10.49,4.714-10.49,4.714S28.504,15.63,32.56,11.921z"/>
<path fill="#FFFFFF" d="M28.241,22.497c0,0-2.508-7.364-10.217-8.866C18.024,13.631,24.274,15.984,28.241,22.497z"/>
<path fill="#3A6636" d="M38.508,10.284"/>
<path fill="#FFFFFF" d="M31.06,21.999c0,0,1.831-9.083,11.846-13.415C42.905,8.584,35.023,13.363,31.06,21.999z"/>
</svg>
